<svg xmlns="http://www.w3.org/2000/svg" version="1.0" width="128.000000pt" height="128.000000pt" viewBox="0 0 128.000000 128.000000" preserveAspectRatio="xMidYMid meet">
    <g transform="translate(0.000000,128.000000) scale(0.100000,-0.100000)" fill="#000000" stroke="none">
        <path d="M38 1021 l-33 -29 0 -352 0 -352 33 -29 32 -29 569 0 c550 0 569 1 593 20 47 36 49 54 46 409 l-3 333 -33 29 -32 29 -570 0 -570 0 -32 -29z m406 -213 c8 -13 8 -23 0 -35 -9 -15 -28 -19 -99 -21 -90 -3 -115 5 -115 37 0 34 22 42 114 39 72 -2 91 -6 100 -20z m300 0 c8 -13 8 -23 0 -35 -9 -15 -28 -19 -99 -21 -90 -3 -115 5 -115 37 0 34 22 42 114 39 72 -2 91 -6 100 -20z m300 0 c8 -13 8 -23 0 -35 -9 -15 -28 -19 -99 -21 -90 -3 -115 5 -115 37 0 34 22 42 114 39 72 -2 91 -6 100 -20z m-737 -160 l33 -32 35 34 c29 28 39 32 53 24 26 -17 25 -47 -3 -74 -31 -30 -31 -40 0 -70 28 -27 29 -57 3 -74 -14 -8 -24 -4 -53 24 l-35 34 -35 -34 c-29 -28 -39 -32 -53 -24 -26 17 -25 47 3 74 31 29 31 41 0 70 -27 26 -32 49 -13 68 18 18 29 15 65 -20z m300 0 l33 -32 35 34 c29 28 39 32 53 24 26 -17 25 -47 -3 -74 -31 -30 -31 -40 0 -70 28 -27 29 -57 3 -74 -14 -8 -24 -4 -53 24 l-35 34 -35 -34 c-29 -28 -39 -32 -53 -24 -26 17 -25 47 3 74 31 29 31 41 0 70 -27 26 -32 49 -13 68 18 18 29 15 65 -20z m300 0 l33 -32 35 34 c29 28 39 32 53 24 26 -17 25 -47 -3 -74 -31 -30 -31 -40 0 -70 28 -27 29 -57 3 -74 -14 -8 -24 -4 -53 24 l-35 34 -35 -34 c-29 -28 -39 -32 -53 -24 -26 17 -25 47 3 74 31 29 31 41 0 70 -27 26 -32 49 -13 68 18 18 29 15 65 -20z"/>
    </g>
</svg>