<svg viewBox="0 0 500 500" xmlns="http://www.w3.org/2000/svg" xmlns:bx="https://boxy-svg.com">
  <defs></defs>
  <g transform="matrix(1, 0, 0, 1, 0, -1.330811)">
    <title>Casas</title>
    <g transform="matrix(0.543854, 0, 0, 0.538635, 329.085083, 231.863449)" style="">
      <title>Casa</title>
      <rect x="210.203" y="263.603" width="25.863" height="78.4" style="stroke: rgb(0, 0, 0); stroke-opacity: 0; fill: rgb(240, 240, 240);"></rect>
      <path d="M 79.537 268.359 L 142.833 341.943 L 16.241 341.943 L 79.537 268.359 Z" style="stroke: rgb(0, 0, 0); stroke-width: 0px; fill: rgb(240, 240, 240);" bx:shape="triangle 16.241 268.359 126.592 73.584 0.5 0 1@8011c87f"></path>
      <rect x="79.538" y="268.357" width="109.081" height="73.569" style="stroke: rgb(0, 0, 0); stroke-opacity: 0; fill: rgb(240, 240, 240);"></rect>
      <rect x="125.468" y="341.909" width="126.415" height="158.491" style="fill: rgb(216, 216, 216); stroke: rgb(0, 0, 0); stroke-width: 0px;"></rect>
      <path d="M 188.653 268.325 L 251.949 341.909 L 125.357 341.909 L 188.653 268.325 Z" style="fill: rgb(216, 216, 216); stroke: rgb(0, 0, 0); stroke-width: 0px;" bx:shape="triangle 125.357 268.325 126.592 73.584 0.5 0 1@6c2cc363"></path>
      <rect x="16.258" y="341.926" width="109.081" height="158.298" style="stroke: rgb(0, 0, 0); stroke-opacity: 0; fill: rgb(240, 240, 240);"></rect>
      <rect x="170" y="375" width="45" height="30" style="stroke: rgb(0, 0, 0); stroke-opacity: 0; fill: rgb(255, 255, 255);"></rect>
      <rect x="170" y="425" width="45" height="30" style="stroke: rgb(0, 0, 0); stroke-opacity: 0; fill: rgb(255, 255, 255);"></rect>
      <rect x="45" y="375" width="40" height="30" style="stroke: rgb(0, 0, 0); stroke-opacity: 0; fill: rgb(255, 255, 255);"></rect>
      <rect x="45" y="425" width="40" height="30" style="stroke: rgb(0, 0, 0); stroke-opacity: 0; fill: rgb(255, 255, 255);"></rect>
    </g>
    <g transform="matrix(0.6747, 0, 0, 0.671021, 177.468323, 165.709137)" style="">
      <title>Casa</title>
      <rect x="210.203" y="263.603" width="25.863" height="78.4" style="stroke: rgb(0, 0, 0); stroke-opacity: 0; fill: rgb(240, 240, 240);"></rect>
      <path d="M 79.537 268.359 L 142.833 341.943 L 16.241 341.943 L 79.537 268.359 Z" style="stroke: rgb(0, 0, 0); stroke-width: 0px; fill: rgb(240, 240, 240);" bx:shape="triangle 16.241 268.359 126.592 73.584 0.5 0 1@8011c87f"></path>
      <rect x="79.538" y="268.357" width="109.081" height="73.569" style="stroke: rgb(0, 0, 0); stroke-opacity: 0; fill: rgb(240, 240, 240);"></rect>
      <rect x="125.468" y="341.909" width="126.415" height="158.491" style="fill: rgb(216, 216, 216); stroke: rgb(0, 0, 0); stroke-width: 0px;"></rect>
      <path d="M 188.653 268.325 L 251.949 341.909 L 125.357 341.909 L 188.653 268.325 Z" style="fill: rgb(216, 216, 216); stroke: rgb(0, 0, 0); stroke-width: 0px;" bx:shape="triangle 125.357 268.325 126.592 73.584 0.5 0 1@6c2cc363"></path>
      <rect x="16.258" y="341.926" width="109.081" height="158.298" style="stroke: rgb(0, 0, 0); stroke-opacity: 0; fill: rgb(240, 240, 240);"></rect>
      <rect x="170" y="375" width="45" height="30" style="stroke: rgb(0, 0, 0); stroke-opacity: 0; fill: rgb(255, 255, 255);"></rect>
      <rect x="170" y="425" width="45" height="30" style="stroke: rgb(0, 0, 0); stroke-opacity: 0; fill: rgb(255, 255, 255);"></rect>
      <rect x="45" y="375" width="40" height="30" style="stroke: rgb(0, 0, 0); stroke-opacity: 0; fill: rgb(255, 255, 255);"></rect>
      <rect x="45" y="425" width="40" height="30" style="stroke: rgb(0, 0, 0); stroke-opacity: 0; fill: rgb(255, 255, 255);"></rect>
    </g>
    <g style="" transform="matrix(0.724548, 0, 0, 0.760302, 23.769423, 120.91304)">
      <title>Casa</title>
      <rect x="210.203" y="263.603" width="25.863" height="78.4" style="stroke: rgb(0, 0, 0); stroke-opacity: 0; fill: rgb(240, 240, 240);"></rect>
      <path d="M 79.537 268.359 L 142.833 341.943 L 16.241 341.943 L 79.537 268.359 Z" style="stroke: rgb(0, 0, 0); stroke-width: 0px; fill: rgb(240, 240, 240);" bx:shape="triangle 16.241 268.359 126.592 73.584 0.5 0 1@8011c87f"></path>
      <rect x="79.538" y="268.357" width="109.081" height="73.569" style="stroke: rgb(0, 0, 0); stroke-opacity: 0; fill: rgb(240, 240, 240);"></rect>
      <rect x="125.468" y="341.909" width="126.415" height="158.491" style="fill: rgb(216, 216, 216); stroke: rgb(0, 0, 0); stroke-width: 0px;"></rect>
      <path d="M 188.653 268.325 L 251.949 341.909 L 125.357 341.909 L 188.653 268.325 Z" style="fill: rgb(216, 216, 216); stroke: rgb(0, 0, 0); stroke-width: 0px;" bx:shape="triangle 125.357 268.325 126.592 73.584 0.5 0 1@6c2cc363"></path>
      <rect x="16.258" y="341.926" width="109.081" height="158.298" style="stroke: rgb(0, 0, 0); stroke-opacity: 0; fill: rgb(240, 240, 240);"></rect>
      <rect x="170" y="375" width="45" height="30" style="stroke: rgb(0, 0, 0); stroke-opacity: 0; fill: rgb(255, 255, 255);"></rect>
      <rect x="170" y="425" width="45" height="30" style="stroke: rgb(0, 0, 0); stroke-opacity: 0; fill: rgb(255, 255, 255);"></rect>
      <rect x="45" y="375" width="40" height="30" style="stroke: rgb(0, 0, 0); stroke-opacity: 0; fill: rgb(255, 255, 255);"></rect>
      <rect x="45" y="425" width="40" height="30" style="stroke: rgb(0, 0, 0); stroke-opacity: 0; fill: rgb(255, 255, 255);"></rect>
    </g>
  </g>
  <g>
    <title>Árvores</title>
    <g transform="matrix(0.930479, 0, 0, 1, 20.370964, -3.399048)" style="">
      <title>Árvore 1</title>
      <circle style="stroke-width: 0px; stroke: rgb(0, 0, 0); fill: rgb(101, 165, 240);" transform="matrix(1.148534, 0, 0, 2.713204, -603.804504, -321.292603)" cx="588.5" cy="249.5" r="30.5"></circle>
      <path style="fill: rgb(216, 216, 216); fill-opacity: 0; stroke: rgb(62, 105, 162); stroke-linecap: round; stroke-width: 2px; transform-origin: 77.785px 396.867px;" d="M 87.52 291.747 L 83.76466666666666 308.8498333333334 C 80.00933333333333 325.95266666666663 72.49866666666667 360.1583333333333 69.25366666666666 395.19849999999997 C 66.00866666666667 430.23866666666663 67.02933333333333 466.1133333333333 67.53966666666666 484.0506666666666 L 68.05 501.988" transform="matrix(0.995483, -0.094944, 0.094944, 0.995483, 0.000001, 0)" bx:d="M 87.52 291.747 U 64.988 394.364 U 68.05 501.988 1@25ece307"></path>
      <path style="fill: rgb(216, 216, 216); fill-opacity: 0; stroke: rgb(62, 105, 162); stroke-linecap: round; stroke-width: 2px; transform-origin: 74.166px 333.431px;" d="M 38.543 340.262 L 40.0365 341.546 C 41.53 342.83 44.516999999999996 345.39799999999997 49.129999999999995 348.634 C 53.742999999999995 351.87000000000006 59.982 355.77400000000006 63.10150000000001 357.72599999999994 L 66.221 359.678" transform="matrix(0.995483, -0.094944, 0.094944, 0.995483, -0.000002, 0.000003)" bx:d="M 38.543 340.262 U 47.504 347.966 U 66.221 359.678 1@75909cb5"></path>
      <path style="fill: rgb(216, 216, 216); fill-opacity: 0; stroke: rgb(62, 105, 162); stroke-linecap: round; stroke-width: 2px; transform-origin: 79.724px 337.037px;" d="M 68.213 358.408 L 71.84883333333333 356.83649999999994 C 75.48466666666667 355.26500000000004 82.75633333333333 352.122 88.91883333333334 349.13016666666664 C 95.08133333333335 346.1383333333333 100.13466666666666 343.29766666666666 102.66133333333335 341.87733333333335 L 105.188 340.457" transform="matrix(0.995483, -0.094944, 0.094944, 0.995483, 0, -0.000005)" bx:d="M 68.213 358.408 U 90.028 348.979 U 105.188 340.457 1@72c536bd"></path>
    </g>
    <g transform="matrix(-0.888766, 0, 0, 1, 336.026031, -3.399048)" style="transform-origin: 72.1077px 387.719px;">
      <title>Árvore 1</title>
      <circle style="stroke-width: 0px; stroke: rgb(0, 0, 0); fill: rgb(101, 165, 240);" transform="matrix(1.148534, 0, 0, 2.713204, -603.804504, -321.292603)" cx="588.5" cy="249.5" r="30.5"></circle>
      <path style="fill: rgb(216, 216, 216); fill-opacity: 0; stroke: rgb(62, 105, 162); stroke-linecap: round; stroke-width: 2px; transform-origin: 77.785px 396.867px;" d="M 87.52 291.747 L 83.76466666666666 308.8498333333334 C 80.00933333333333 325.95266666666663 72.49866666666667 360.1583333333333 69.25366666666666 395.19849999999997 C 66.00866666666667 430.23866666666663 67.02933333333333 466.1133333333333 67.53966666666666 484.0506666666666 L 68.05 501.988" transform="matrix(0.995483, -0.094944, 0.094944, 0.995483, 0.000001, 0)" bx:d="M 87.52 291.747 U 64.988 394.364 U 68.05 501.988 1@25ece307"></path>
      <path style="fill: rgb(216, 216, 216); fill-opacity: 0; stroke: rgb(62, 105, 162); stroke-linecap: round; stroke-width: 2px; transform-origin: 74.166px 333.431px;" d="M 38.543 340.262 L 40.0365 341.546 C 41.53 342.83 44.516999999999996 345.39799999999997 49.129999999999995 348.634 C 53.742999999999995 351.87000000000006 59.982 355.77400000000006 63.10150000000001 357.72599999999994 L 66.221 359.678" transform="matrix(0.995483, -0.094944, 0.094944, 0.995483, -0.000002, 0.000003)" bx:d="M 38.543 340.262 U 47.504 347.966 U 66.221 359.678 1@75909cb5"></path>
      <path style="fill: rgb(216, 216, 216); fill-opacity: 0; stroke: rgb(62, 105, 162); stroke-linecap: round; stroke-width: 2px; transform-origin: 79.724px 337.037px;" d="M 68.213 358.408 L 71.84883333333333 356.83649999999994 C 75.48466666666667 355.26500000000004 82.75633333333333 352.122 88.91883333333334 349.13016666666664 C 95.08133333333335 346.1383333333333 100.13466666666666 343.29766666666666 102.66133333333335 341.87733333333335 L 105.188 340.457" transform="matrix(0.995483, -0.094944, 0.094944, 0.995483, 0, -0.000005)" bx:d="M 68.213 358.408 U 90.028 348.979 U 105.188 340.457 1@72c536bd"></path>
    </g>
    <g transform="matrix(0.659313, 0, 0, 0.699123, -21.186274, 148.209976)" style="">
      <title>Árvore 2</title>
      <circle style="stroke-width: 0px; stroke: rgb(0, 0, 0); fill: rgb(101, 165, 240);" transform="matrix(1.148534, 0, 0, 2.713204, -603.804504, -321.292603)" cx="588.5" cy="249.5" r="30.5"></circle>
      <path style="fill: rgb(216, 216, 216); fill-opacity: 0; stroke: rgb(62, 105, 162); stroke-linecap: round; stroke-width: 2px; transform-origin: 77.785px 396.867px;" d="M 87.52 291.747 L 83.76466666666666 308.8498333333334 C 80.00933333333333 325.95266666666663 72.49866666666667 360.1583333333333 69.25366666666666 395.19849999999997 C 66.00866666666667 430.23866666666663 67.02933333333333 466.1133333333333 67.53966666666666 484.0506666666666 L 68.05 501.988" transform="matrix(0.995483, -0.094944, 0.094944, 0.995483, 0.000001, 0)" bx:d="M 87.52 291.747 U 64.988 394.364 U 68.05 501.988 1@25ece307"></path>
      <path style="fill: rgb(216, 216, 216); fill-opacity: 0; stroke: rgb(62, 105, 162); stroke-linecap: round; stroke-width: 2px; transform-origin: 74.166px 333.431px;" d="M 38.543 340.262 L 40.0365 341.546 C 41.53 342.83 44.516999999999996 345.39799999999997 49.129999999999995 348.634 C 53.742999999999995 351.87000000000006 59.982 355.77400000000006 63.10150000000001 357.72599999999994 L 66.221 359.678" transform="matrix(0.995483, -0.094944, 0.094944, 0.995483, -0.000002, 0.000003)" bx:d="M 38.543 340.262 U 47.504 347.966 U 66.221 359.678 1@75909cb5"></path>
      <path style="fill: rgb(216, 216, 216); fill-opacity: 0; stroke: rgb(62, 105, 162); stroke-linecap: round; stroke-width: 2px; transform-origin: 79.724px 337.037px;" d="M 68.213 358.408 L 71.84883333333333 356.83649999999994 C 75.48466666666667 355.26500000000004 82.75633333333333 352.122 88.91883333333334 349.13016666666664 C 95.08133333333335 346.1383333333333 100.13466666666666 343.29766666666666 102.66133333333335 341.87733333333335 L 105.188 340.457" transform="matrix(0.995483, -0.094944, 0.094944, 0.995483, 0, -0.000005)" bx:d="M 68.213 358.408 U 90.028 348.979 U 105.188 340.457 1@72c536bd"></path>
    </g>
    <g transform="matrix(-0.688001, 0, 0, 0.679825, 522.71106, 157.676392)" style="">
      <title>Árvore 2</title>
      <circle style="stroke-width: 0px; stroke: rgb(0, 0, 0); fill: rgb(101, 165, 240);" transform="matrix(1.148534, 0, 0, 2.713204, -603.804504, -321.292603)" cx="588.5" cy="249.5" r="30.5"></circle>
      <path style="fill: rgb(216, 216, 216); fill-opacity: 0; stroke: rgb(62, 105, 162); stroke-linecap: round; stroke-width: 2px; transform-origin: 77.785px 396.867px;" d="M 87.52 291.747 L 83.76466666666666 308.8498333333334 C 80.00933333333333 325.95266666666663 72.49866666666667 360.1583333333333 69.25366666666666 395.19849999999997 C 66.00866666666667 430.23866666666663 67.02933333333333 466.1133333333333 67.53966666666666 484.0506666666666 L 68.05 501.988" transform="matrix(0.995483, -0.094944, 0.094944, 0.995483, 0.000001, 0)" bx:d="M 87.52 291.747 U 64.988 394.364 U 68.05 501.988 1@25ece307"></path>
      <path style="fill: rgb(216, 216, 216); fill-opacity: 0; stroke: rgb(62, 105, 162); stroke-linecap: round; stroke-width: 2px; transform-origin: 74.166px 333.431px;" d="M 38.543 340.262 L 40.0365 341.546 C 41.53 342.83 44.516999999999996 345.39799999999997 49.129999999999995 348.634 C 53.742999999999995 351.87000000000006 59.982 355.77400000000006 63.10150000000001 357.72599999999994 L 66.221 359.678" transform="matrix(0.995483, -0.094944, 0.094944, 0.995483, -0.000002, 0.000003)" bx:d="M 38.543 340.262 U 47.504 347.966 U 66.221 359.678 1@75909cb5"></path>
      <path style="fill: rgb(216, 216, 216); fill-opacity: 0; stroke: rgb(62, 105, 162); stroke-linecap: round; stroke-width: 2px; transform-origin: 79.724px 337.037px;" d="M 68.213 358.408 L 71.84883333333333 356.83649999999994 C 75.48466666666667 355.26500000000004 82.75633333333333 352.122 88.91883333333334 349.13016666666664 C 95.08133333333335 346.1383333333333 100.13466666666666 343.29766666666666 102.66133333333335 341.87733333333335 L 105.188 340.457" transform="matrix(0.995483, -0.094944, 0.094944, 0.995483, 0, -0.000005)" bx:d="M 68.213 358.408 U 90.028 348.979 U 105.188 340.457 1@72c536bd"></path>
    </g>
    <g transform="matrix(0.402116, 0, 0, 0.372178, 28.72015, 312.932983)" style="">
      <title>Árvore 3</title>
      <circle style="stroke-width: 0px; stroke: rgb(0, 0, 0); fill: rgb(52, 56, 133);" transform="matrix(1.148534, 0, 0, 2.713204, -603.804504, -321.292603)" cx="588.5" cy="249.5" r="30.5"></circle>
      <path style="fill: rgb(216, 216, 216); fill-opacity: 0; stroke: rgb(62, 105, 162); stroke-linecap: round; stroke-width: 2px; transform-origin: 77.785px 396.867px;" d="M 87.52 291.747 L 83.76466666666666 308.8498333333334 C 80.00933333333333 325.95266666666663 72.49866666666667 360.1583333333333 69.25366666666666 395.19849999999997 C 66.00866666666667 430.23866666666663 67.02933333333333 466.1133333333333 67.53966666666666 484.0506666666666 L 68.05 501.988" transform="matrix(0.995483, -0.094944, 0.094944, 0.995483, 0.000001, 0)" bx:d="M 87.52 291.747 U 64.988 394.364 U 68.05 501.988 1@25ece307"></path>
      <path style="fill: rgb(216, 216, 216); fill-opacity: 0; stroke: rgb(62, 105, 162); stroke-linecap: round; stroke-width: 2px; transform-origin: 74.166px 333.431px;" d="M 38.543 340.262 L 40.0365 341.546 C 41.53 342.83 44.516999999999996 345.39799999999997 49.129999999999995 348.634 C 53.742999999999995 351.87000000000006 59.982 355.77400000000006 63.10150000000001 357.72599999999994 L 66.221 359.678" transform="matrix(0.995483, -0.094944, 0.094944, 0.995483, -0.000002, 0.000003)" bx:d="M 38.543 340.262 U 47.504 347.966 U 66.221 359.678 1@75909cb5"></path>
      <path style="fill: rgb(216, 216, 216); fill-opacity: 0; stroke: rgb(62, 105, 162); stroke-linecap: round; stroke-width: 2px; transform-origin: 79.724px 337.037px;" d="M 68.213 358.408 L 71.84883333333333 356.83649999999994 C 75.48466666666667 355.26500000000004 82.75633333333333 352.122 88.91883333333334 349.13016666666664 C 95.08133333333335 346.1383333333333 100.13466666666666 343.29766666666666 102.66133333333335 341.87733333333335 L 105.188 340.457" transform="matrix(0.995483, -0.094944, 0.094944, 0.995483, 0, -0.000005)" bx:d="M 68.213 358.408 U 90.028 348.979 U 105.188 340.457 1@72c536bd"></path>
    </g>
    <g transform="matrix(-0.429924, 0, 0, 0.372178, 469.061218, 312.932983)" style="">
      <title>Árvore 3</title>
      <circle style="stroke-width: 0px; stroke: rgb(0, 0, 0); fill: rgb(52, 56, 133);" transform="matrix(1.148534, 0, 0, 2.713204, -603.804504, -321.292603)" cx="588.5" cy="249.5" r="30.5"></circle>
      <path style="fill: rgb(216, 216, 216); fill-opacity: 0; stroke: rgb(62, 105, 162); stroke-linecap: round; stroke-width: 2px; transform-origin: 77.785px 396.867px;" d="M 87.52 291.747 L 83.76466666666666 308.8498333333334 C 80.00933333333333 325.95266666666663 72.49866666666667 360.1583333333333 69.25366666666666 395.19849999999997 C 66.00866666666667 430.23866666666663 67.02933333333333 466.1133333333333 67.53966666666666 484.0506666666666 L 68.05 501.988" transform="matrix(0.995483, -0.094944, 0.094944, 0.995483, 0.000001, 0)" bx:d="M 87.52 291.747 U 64.988 394.364 U 68.05 501.988 1@25ece307"></path>
      <path style="fill: rgb(216, 216, 216); fill-opacity: 0; stroke: rgb(62, 105, 162); stroke-linecap: round; stroke-width: 2px; transform-origin: 74.166px 333.431px;" d="M 38.543 340.262 L 40.0365 341.546 C 41.53 342.83 44.516999999999996 345.39799999999997 49.129999999999995 348.634 C 53.742999999999995 351.87000000000006 59.982 355.77400000000006 63.10150000000001 357.72599999999994 L 66.221 359.678" transform="matrix(0.995483, -0.094944, 0.094944, 0.995483, -0.000002, 0.000003)" bx:d="M 38.543 340.262 U 47.504 347.966 U 66.221 359.678 1@75909cb5"></path>
      <path style="fill: rgb(216, 216, 216); fill-opacity: 0; stroke: rgb(62, 105, 162); stroke-linecap: round; stroke-width: 2px; transform-origin: 79.724px 337.037px;" d="M 68.213 358.408 L 71.84883333333333 356.83649999999994 C 75.48466666666667 355.26500000000004 82.75633333333333 352.122 88.91883333333334 349.13016666666664 C 95.08133333333335 346.1383333333333 100.13466666666666 343.29766666666666 102.66133333333335 341.87733333333335 L 105.188 340.457" transform="matrix(0.995483, -0.094944, 0.094944, 0.995483, 0, -0.000005)" bx:d="M 68.213 358.408 U 90.028 348.979 U 105.188 340.457 1@72c536bd"></path>
    </g>
  </g>
  <g transform="matrix(1, 0, 0, 1, 0, -1.269989)">
    <title>Bancos</title>
    <g>
      <title>Banco</title>
      <rect x="150" y="478.77" width="63.02" height="0.359" style="stroke-linecap: round; fill: rgb(52, 56, 133); fill-rule: nonzero; stroke: rgb(52, 56, 133); stroke-miterlimit: 5.43; stroke-linejoin: round;"></rect>
      <rect x="150" y="482.376" width="63.02" height="0.359" style="stroke-linecap: round; fill: rgb(52, 56, 133); fill-rule: nonzero; stroke: rgb(52, 56, 133); stroke-miterlimit: 5.43; stroke-linejoin: round;"></rect>
      <rect x="150" y="486" width="63.02" height="0.359" style="stroke-linecap: round; fill: rgb(52, 56, 133); fill-rule: nonzero; stroke: rgb(52, 56, 133); stroke-miterlimit: 5.43; stroke-linejoin: round;"></rect>
      <rect x="150" y="489.606" width="63.02" height="0.359" style="stroke-linecap: round; fill: rgb(52, 56, 133); fill-rule: nonzero; stroke: rgb(52, 56, 133); stroke-miterlimit: 5.43; stroke-linejoin: round;"></rect>
      <rect x="-23.385" y="-757.601" width="11.243" height="0.538" style="stroke-linecap: round; fill: rgb(52, 56, 133); fill-rule: nonzero; stroke: rgb(52, 56, 133); stroke-miterlimit: 5.43; stroke-linejoin: round; transform-box: fill-box; transform-origin: 50% 50%;" transform="matrix(0, 1, 1, 0, 171.354705, 1252.653553)"></rect>
      <rect x="-23.385" y="-757.601" width="11.243" height="0.538" style="stroke-linecap: round; fill: rgb(52, 56, 133); fill-rule: nonzero; stroke: rgb(52, 56, 133); stroke-miterlimit: 5.43; stroke-linejoin: round; transform-origin: -17.763px -757.332px;" transform="matrix(0, 1, 1, 0, 227.032043, 1252.653931)"></rect>
    </g>
    <g transform="matrix(1, 0, 0, 1, 145, 0.030011)">
      <title>Banco</title>
      <rect x="150" y="478.77" width="63.02" height="0.359" style="stroke-linecap: round; fill: rgb(52, 56, 133); fill-rule: nonzero; stroke: rgb(52, 56, 133); stroke-miterlimit: 5.43; stroke-linejoin: round;"></rect>
      <rect x="150" y="482.376" width="63.02" height="0.359" style="stroke-linecap: round; fill: rgb(52, 56, 133); fill-rule: nonzero; stroke: rgb(52, 56, 133); stroke-miterlimit: 5.43; stroke-linejoin: round;"></rect>
      <rect x="150" y="486" width="63.02" height="0.359" style="stroke-linecap: round; fill: rgb(52, 56, 133); fill-rule: nonzero; stroke: rgb(52, 56, 133); stroke-miterlimit: 5.43; stroke-linejoin: round;"></rect>
      <rect x="150" y="489.606" width="63.02" height="0.359" style="stroke-linecap: round; fill: rgb(52, 56, 133); fill-rule: nonzero; stroke: rgb(52, 56, 133); stroke-miterlimit: 5.43; stroke-linejoin: round;"></rect>
      <rect x="-23.385" y="-757.601" width="11.243" height="0.538" style="stroke-linecap: round; fill: rgb(52, 56, 133); fill-rule: nonzero; stroke: rgb(52, 56, 133); stroke-miterlimit: 5.43; stroke-linejoin: round; transform-box: fill-box; transform-origin: 50% 50%;" transform="matrix(0, 1, 1, 0, 171.354705, 1252.653553)"></rect>
      <rect x="-23.385" y="-757.601" width="11.243" height="0.538" style="stroke-linecap: round; fill: rgb(52, 56, 133); fill-rule: nonzero; stroke: rgb(52, 56, 133); stroke-miterlimit: 5.43; stroke-linejoin: round; transform-origin: -17.763px -757.332px;" transform="matrix(0, 1, 1, 0, 227.032043, 1252.653931)"></rect>
    </g>
  </g>
  <g transform="matrix(1, 0, 0, 1, 0, -1.329028)">
    <title>Grama</title>
    <path style="stroke: rgb(0, 0, 0); stroke-width: 0px; fill: rgb(52, 56, 133);" transform="matrix(0.272266, 0, 0, 0.238756, 7.570959, 428.448639)" d="M 396 305.5 A 32.5 32.5 0 1 1 461 305.5 L 428.5 305.5 Z" bx:shape="pie 428.5 305.5 0 32.5 270 90 1@73a16394"></path>
    <path style="stroke: rgb(0, 0, 0); stroke-width: 0px; fill: rgb(52, 56, 133);" transform="matrix(0.206854, 0, 0, 0.238756, 42.963036, 428.467316)" d="M 396 305.5 A 32.5 32.5 0 1 1 461 305.5 L 428.5 305.5 Z" bx:shape="pie 428.5 305.5 0 32.5 270 90 1@73a16394"></path>
  </g>
  <g transform="matrix(1.133667, 0, 0, 1, 109.188103, -1.329028)">
    <title>Grama</title>
    <path style="stroke: rgb(0, 0, 0); stroke-width: 0px; fill: rgb(52, 56, 133);" transform="matrix(0.272266, 0, 0, 0.238756, 7.570959, 428.448639)" d="M 396 305.5 A 32.5 32.5 0 1 1 461 305.5 L 428.5 305.5 Z" bx:shape="pie 428.5 305.5 0 32.5 270 90 1@73a16394"></path>
    <path style="stroke: rgb(0, 0, 0); stroke-width: 0px; fill: rgb(52, 56, 133);" transform="matrix(0.206854, 0, 0, 0.238756, 42.963036, 428.467316)" d="M 396 305.5 A 32.5 32.5 0 1 1 461 305.5 L 428.5 305.5 Z" bx:shape="pie 428.5 305.5 0 32.5 270 90 1@73a16394"></path>
  </g>
  <g transform="matrix(1, 0, 0, 1, 284.611694, -1.329028)">
    <title>Grama</title>
    <path style="stroke: rgb(0, 0, 0); stroke-width: 0px; fill: rgb(52, 56, 133);" transform="matrix(0.272266, 0, 0, 0.238756, 7.570959, 428.448639)" d="M 396 305.5 A 32.5 32.5 0 1 1 461 305.5 L 428.5 305.5 Z" bx:shape="pie 428.5 305.5 0 32.5 270 90 1@73a16394"></path>
    <path style="stroke: rgb(0, 0, 0); stroke-width: 0px; fill: rgb(52, 56, 133);" transform="matrix(0.206854, 0, 0, 0.238756, 42.963036, 428.467316)" d="M 396 305.5 A 32.5 32.5 0 1 1 461 305.5 L 428.5 305.5 Z" bx:shape="pie 428.5 305.5 0 32.5 270 90 1@73a16394"></path>
  </g>
  <polyline style="stroke: rgb(0, 0, 0); stroke-width: 0px; fill: rgb(52, 56, 133); transform-box: fill-box; transform-origin: 50% 50%;" points="142.621 263.084 151.445 268.607 160.438 262.999 151.341 272.533" transform="matrix(0.981627, -0.190809, 0.190809, 0.981627, 0, -0.000006)"></polyline>
  <polyline style="stroke: rgb(0, 0, 0); stroke-width: 0px; fill: rgb(52, 56, 133); transform-origin: 361.655px 274.901px;" points="352.746 270.219 361.57 275.742 370.563 270.134 361.466 279.668" transform="matrix(0.981627, -0.190809, 0.190809, 0.981627, 0.000001, 0.000001)"></polyline>
  <polyline style="stroke: rgb(0, 0, 0); stroke-width: 0px; fill: rgb(52, 56, 133); transform-origin: 255.655px 317.379px;" points="246.746 312.697 255.57 318.22 264.563 312.612 255.466 322.146" transform="matrix(0.981627, -0.190809, 0.190809, 0.981627, -0.000002, 0.000003)"></polyline>
</svg>