<svg xmlns="http://www.w3.org/2000/svg" xmlns:xlink="http://www.w3.org/1999/xlink" fill="#000000" height="800px" width="800px" version="1.1" id="Layer_1" viewBox="0 0 512 512" xml:space="preserve">
<g>
	<g>
		<path d="M389.565,43.174v-9.783C389.565,14.978,374.587,0,356.174,0H155.826c-18.413,0-33.391,14.978-33.391,33.391v9.783    C105.947,59.657,89.044,72.036,89.044,97.31v102.934v0.014v111.29v0.014v103.128c0,24.894,15.356,36.099,33.391,54.136v9.781    c0,18.413,14.978,33.391,33.391,33.391h200.348c18.413,0,33.391-14.978,33.391-33.391v-9.783    c16.476-16.472,33.391-28.858,33.391-54.136V97.31C422.957,72.068,406.109,59.718,389.565,43.174z M155.826,50.087V33.391h200.348    v16.696c0,7.919,4.345,11.257,9.781,16.696H146.044C151.514,61.312,155.826,57.991,155.826,50.087z M356.174,461.913v16.696    H155.826v-16.696c0-7.919-4.345-11.37-9.781-16.807h219.912C360.486,450.577,356.174,454.009,356.174,461.913z M389.565,304.105    c-41.463,33.975-84.463,31.484-121.805-4.301c-0.011-0.01-0.024-0.012-0.024-0.012c-38.504-38.321-92.487-51.63-145.301-21.044    v-70.861c41.475-33.969,84.461-31.468,121.794,4.309c0.011,0.01,0.024,0.012,0.024,0.012    c38.489,38.216,92.367,51.703,145.312,21.038V304.105z"/>
	</g>
</g>
</svg>