<svg id="wave" style="transform:rotate(0deg); transition: 0.3s" viewBox="0 0 1440 490" version="1.1" xmlns="http://www.w3.org/2000/svg">
  <defs>
    <linearGradient id="sw-gradient-0" x1="0" x2="0" y1="1" y2="0">
      <stop stop-color="rgba(255, 255, 255, 1)" offset="0%"></stop>
      <stop stop-color="rgba(255, 255, 255, 1)" offset="100%"></stop>
    </linearGradient>
  </defs>
  <path style="transform:translate(0, 0px); opacity:1" fill="url(#sw-gradient-0)" d="M0,196L80,171.5C160,147,320,98,480,122.5C640,147,800,245,960,269.5C1120,294,1280,245,1440,196C1600,147,1760,98,1920,73.5C2080,49,2240,49,2400,81.7C2560,114,2720,180,2880,187.8C3040,196,3200,147,3360,163.3C3520,180,3680,261,3840,294C4000,327,4160,310,4320,294C4480,278,4640,261,4800,245C4960,229,5120,212,5280,212.3C5440,212,5600,229,5760,236.8C5920,245,6080,245,6240,212.3C6400,180,6560,114,6720,122.5C6880,131,7040,212,7200,212.3C7360,212,7520,131,7680,106.2C7840,82,8000,114,8160,171.5C8320,229,8480,310,8640,343C8800,376,8960,359,9120,343C9280,327,9440,310,9600,302.2C9760,294,9920,294,10080,294C10240,294,10400,294,10560,261.3C10720,229,10880,163,11040,155.2C11200,147,11360,196,11440,220.5L11520,245L11520,490L11440,490C11360,490,11200,490,11040,490C10880,490,10720,490,10560,490C10400,490,10240,490,10080,490C9920,490,9760,490,9600,490C9440,490,9280,490,9120,490C8960,490,8800,490,8640,490C8480,490,8320,490,8160,490C8000,490,7840,490,7680,490C7520,490,7360,490,7200,490C7040,490,6880,490,6720,490C6560,490,6400,490,6240,490C6080,490,5920,490,5760,490C5600,490,5440,490,5280,490C5120,490,4960,490,4800,490C4640,490,4480,490,4320,490C4160,490,4000,490,3840,490C3680,490,3520,490,3360,490C3200,490,3040,490,2880,490C2720,490,2560,490,2400,490C2240,490,2080,490,1920,490C1760,490,1600,490,1440,490C1280,490,1120,490,960,490C800,490,640,490,480,490C320,490,160,490,80,490L0,490Z">
  </path>
</svg>